{"glyphs":{":":{"x_min":0,"x_max":336,"ha":336,"o":"m 216 322 q 196 304 169 304 q 142 304 123 323 q 104 342 104 369 q 104 396 123 415 q 142 434 169 434 q 196 434 216 416 q 234 396 234 369 q 234 342 216 322 z m 216 5 q 197 -14 169 -14 q 141 -14 122 5 q 104 25 104 51 q 104 78 123 97 q 142 116 169 116 q 196 116 215 97 q 234 78 234 51 q 234 24 216 5 z"},"$":{"x_min":0,"x_max":636,"ha":636,"o":"m 553 171 q 553 90 496 41 q 442 -7 337 -15 l 337 -147 l 288 -147 l 288 -15 q 238 -13 191 -2 q 138 12 86 35 l 86 170 l 139 170 q 140 104 178 69 q 216 34 288 33 l 288 270 q 177 301 130 342 q 85 382 85 450 q 85 528 138 576 q 193 623 288 629 l 288 760 l 337 760 l 337 629 q 388 624 432 613 q 474 602 521 581 l 521 453 l 468 453 q 462 511 428 542 q 394 576 337 580 l 337 359 q 457 326 505 284 q 553 242 553 171 z m 288 375 l 288 580 q 239 577 210 551 q 182 526 182 482 q 182 442 208 417 q 234 391 288 375 z m 450 138 q 450 179 422 210 q 391 239 337 254 l 337 33 q 392 37 421 65 q 450 92 450 138 z"},"?":{"x_min":0,"x_max":536,"ha":536,"o":"m 488 549 q 488 458 434 400 q 380 343 271 318 l 271 194 l 211 194 l 211 354 q 297 375 341 424 q 385 476 385 550 q 385 617 349 656 q 313 694 252 694 q 197 694 160 662 q 126 631 115 570 l 68 570 l 68 697 q 125 721 166 731 q 216 742 254 742 q 363 742 425 690 q 488 638 488 549 z m 241 -14 q 213 -14 194 5 q 176 25 176 51 q 176 78 194 97 q 213 116 241 116 q 268 116 287 97 q 306 78 306 51 q 306 24 287 5 q 268 -14 241 -14 z"},"<":{"x_min":0,"x_max":795,"ha":795,"o":"m 715 11 l 80 235 l 80 315 l 715 539 l 715 455 l 207 275 l 715 95 z"},"'":{"x_min":0,"x_max":274,"ha":274,"o":"m 176 458 l 98 458 l 98 729 l 176 729 z"},"=":{"x_min":0,"x_max":788,"ha":788,"o":"m 708 335 l 80 335 l 80 415 l 708 415 z m 708 135 l 80 135 l 80 215 l 708 215 z"},"a":{"x_min":0,"x_max":596,"ha":596,"o":"m 568 0 l 398 0 l 398 56 q 367 19 329 3 q 289 -14 238 -14 q 151 -14 101 32 q 50 78 50 156 q 50 238 108 281 q 167 325 272 325 l 398 325 l 398 361 q 398 421 362 452 q 326 485 261 485 q 205 485 176 460 q 144 436 136 388 l 90 388 l 90 493 q 135 512 181 523 q 222 533 267 533 q 374 533 432 480 q 488 426 488 324 l 488 52 l 568 52 z m 398 163 l 398 273 l 282 273 q 216 273 182 244 q 150 215 150 156 q 150 102 183 70 q 217 38 273 38 q 328 38 364 72 q 398 109 398 163 z"},"L":{"x_min":0,"x_max":664,"ha":664,"o":"m 640 0 l 55 0 l 55 52 l 148 52 l 148 677 l 55 677 l 55 729 l 340 729 l 340 677 l 247 677 l 247 60 l 580 60 l 580 182 l 640 182 z"},"3":{"x_min":0,"x_max":636,"ha":636,"o":"m 562 197 q 562 96 494 40 q 425 -14 296 -14 q 239 -14 184 -2 q 128 10 76 35 l 76 177 l 131 177 q 135 108 178 70 q 222 34 298 34 q 373 34 416 78 q 459 120 459 196 q 459 282 414 326 q 370 370 284 370 l 238 370 l 238 420 l 262 420 q 346 420 390 456 q 433 490 433 562 q 433 625 398 660 q 364 694 297 694 q 230 694 194 662 q 158 632 152 570 l 97 570 l 97 698 q 156 720 206 730 q 260 742 305 742 q 413 742 472 696 q 532 650 532 568 q 532 502 490 458 q 450 414 373 398 q 464 384 512 332 q 562 281 562 197 z"},"J":{"x_min":0,"x_max":400,"ha":400,"o":"m 355 677 l 262 677 l 262 20 q 262 -102 214 -154 q 166 -208 58 -208 q 25 -208 -12 -200 q -44 -193 -84 -175 l -84 -60 l -28 -60 q -26 -109 -6 -132 q 17 -156 59 -156 q 118 -156 140 -120 q 163 -82 163 24 l 163 677 l 50 677 l 50 729 l 355 729 z"},"V":{"x_min":0,"x_max":722,"ha":722,"o":"m 737 677 l 666 677 l 406 0 l 322 0 l 63 677 l -10 677 l -10 729 l 256 729 l 256 677 l 175 677 l 390 117 l 605 677 l 523 677 l 523 729 l 737 729 z"},"\"":{"x_min":0,"x_max":459,"ha":459,"o":"m 362 458 l 284 458 l 284 729 l 362 729 z m 176 458 l 98 458 l 98 729 l 176 729 z"},"7":{"x_min":0,"x_max":636,"ha":636,"o":"m 564 679 l 279 0 l 206 0 l 478 649 l 141 649 l 141 559 l 84 559 l 84 729 l 564 729 z"},"S":{"x_min":0,"x_max":685,"ha":685,"o":"m 612 199 q 612 93 544 40 q 476 -14 342 -14 q 282 -14 220 -2 q 156 10 93 35 l 93 201 l 149 201 q 150 118 197 78 q 243 38 336 38 q 422 38 468 72 q 514 108 514 173 q 514 226 486 254 q 460 282 370 309 l 274 338 q 172 369 127 417 q 84 463 84 547 q 84 640 150 691 q 216 742 335 742 q 383 742 446 731 q 504 721 575 699 l 575 544 l 520 544 q 513 619 468 656 q 425 690 337 690 q 258 690 220 658 q 179 629 179 567 q 179 515 210 485 q 241 454 338 426 l 428 399 q 527 369 570 323 q 612 277 612 199 z"},"}":{"x_min":0,"x_max":418,"ha":418,"o":"m 365 249 q 253 249 253 134 l 253 -6 q 253 -173 53 -173 l 53 -121 q 165 -121 165 -6 l 165 134 q 165 235 238 275 q 165 315 165 416 l 165 556 q 165 671 53 671 l 53 723 q 253 723 253 556 l 253 416 q 253 301 365 301 z"},"Z":{"x_min":0,"x_max":694,"ha":694,"o":"m 656 0 l 45 0 l 45 35 l 499 669 l 122 669 l 122 560 l 62 560 l 62 729 l 638 729 l 638 694 l 184 60 l 596 60 l 596 162 l 656 162 z"},"x":{"x_min":0,"x_max":563,"ha":563,"o":"m 552 0 l 312 0 l 312 52 l 378 52 l 265 207 l 152 52 l 219 52 l 219 0 l 22 0 l 22 52 l 91 52 l 234 249 l 76 467 l 12 467 l 12 519 l 244 519 l 244 467 l 182 467 l 291 317 l 400 467 l 330 467 l 330 519 l 530 519 l 530 467 l 461 467 l 322 275 l 484 52 l 552 52 z"},")":{"x_min":0,"x_max":424,"ha":424,"o":"m 303 240 q 303 114 236 -16 q 188 -108 53 -176 l 53 -118 q 122 -83 173 16 q 188 44 196 84 q 203 123 204 154 q 206 185 206 240 l 206 310 q 206 365 204 396 q 203 427 196 466 q 188 506 173 534 q 122 633 53 668 l 53 726 q 188 658 236 566 q 303 436 303 310 z"},"&":{"x_min":0,"x_max":890,"ha":890,"o":"m 843 0 l 647 0 l 580 71 q 530 28 471 7 q 412 -14 345 -14 q 219 -14 146 50 q 72 115 72 225 q 72 291 109 346 q 147 403 222 452 q 196 482 186 512 q 174 540 174 573 q 174 651 230 696 q 285 742 382 742 q 413 742 458 734 q 494 728 558 709 l 558 583 l 503 583 q 495 636 465 662 q 434 690 380 690 q 330 690 298 662 q 267 634 267 591 q 267 559 284 532 q 300 503 353 447 l 605 181 q 638 218 658 266 q 678 311 682 362 l 594 362 l 594 414 l 825 414 l 825 362 l 741 362 q 734 299 709 244 q 686 189 644 141 l 728 52 l 843 52 z m 540 113 l 256 412 q 216 376 192 330 q 171 286 171 236 q 171 156 227 100 q 282 45 367 45 q 416 45 461 62 q 506 81 540 113 z"},"_":{"x_min":0,"x_max":500,"ha":500,"o":"m 500 -186 l 0 -186 l 0 -134 l 500 -134 z"},"v":{"x_min":0,"x_max":564,"ha":564,"o":"m 562 467 l 504 467 l 313 0 l 247 0 l 56 467 l -3 467 l -3 519 l 236 519 l 236 467 l 153 467 l 299 110 l 445 467 l 367 467 l 367 519 l 562 519 z"},"O":{"x_min":0,"x_max":819,"ha":819,"o":"m 764 364 q 764 278 737 206 q 709 135 656 82 q 607 33 546 10 q 486 -14 410 -14 q 336 -14 274 10 q 210 36 164 82 q 109 137 82 206 q 56 276 56 364 q 56 450 82 522 q 109 591 164 646 q 213 695 274 718 q 334 742 410 742 q 570 742 666 638 q 764 536 764 364 z m 652 364 q 652 526 591 608 q 530 690 410 690 q 291 690 229 608 q 168 525 168 364 q 168 203 229 120 q 291 38 410 38 q 529 38 591 120 q 652 203 652 364 z"},"(":{"x_min":0,"x_max":424,"ha":424,"o":"m 371 -176 q 237 -109 188 -16 q 120 116 120 240 l 120 310 q 120 434 188 566 q 237 659 371 726 l 371 668 q 303 634 250 534 q 229 493 223 442 q 217 391 217 310 l 217 240 q 217 159 223 108 q 229 57 250 16 q 303 -84 371 -118 z"},"C":{"x_min":0,"x_max":765,"ha":765,"o":"m 705 193 q 674 92 597 38 q 519 -14 405 -14 q 335 -14 272 10 q 209 37 164 82 q 109 137 82 206 q 56 278 56 364 q 56 534 154 638 q 252 742 413 742 q 475 742 540 726 q 604 712 685 679 l 685 511 l 630 511 q 612 604 558 646 q 504 690 405 690 q 288 690 228 607 q 168 524 168 364 q 168 204 228 121 q 288 38 405 38 q 486 38 540 77 q 593 117 615 193 z"},"W":{"x_min":0,"x_max":1027,"ha":1027,"o":"m 1025 677 l 953 677 l 762 0 l 682 0 l 515 593 l 348 0 l 268 0 l 77 677 l 5 677 l 5 729 l 271 729 l 271 677 l 180 677 l 332 138 l 498 729 l 577 729 l 746 132 l 899 677 l 815 677 l 815 729 l 1025 729 z"},"A":{"x_min":0,"x_max":722,"ha":722,"o":"m 732 0 l 467 0 l 467 52 l 548 52 l 487 212 l 180 212 l 119 52 l 199 52 l 199 0 l -6 0 l -6 52 l 58 52 l 318 729 l 400 729 l 660 52 l 732 52 z m 468 264 l 334 611 l 200 264 z"},"f":{"x_min":0,"x_max":370,"ha":370,"o":"m 430 637 l 383 637 q 383 674 362 693 q 343 712 303 712 q 253 712 232 684 q 212 656 212 586 l 212 519 l 357 519 l 357 467 l 212 467 l 212 52 l 327 52 l 327 0 l 36 0 l 36 52 l 122 52 l 122 467 l 36 467 l 36 519 l 122 519 l 122 584 q 122 671 167 716 q 213 760 300 760 q 333 760 366 754 q 399 748 430 736 z"},"Q":{"x_min":0,"x_max":819,"ha":819,"o":"m 652 364 q 652 526 591 608 q 530 690 410 690 q 291 690 229 608 q 168 525 168 364 q 168 203 229 120 q 291 38 410 38 q 529 38 591 120 q 652 203 652 364 z m 764 364 q 764 218 691 120 q 617 22 489 -6 q 514 -38 553 -54 q 589 -70 644 -70 l 659 -70 l 659 -160 q 574 -155 518 -120 q 460 -84 422 -14 q 255 -14 156 88 q 56 191 56 364 q 56 450 82 522 q 109 591 164 646 q 213 695 274 718 q 334 742 410 742 q 570 742 666 638 q 764 536 764 364 z"},"w":{"x_min":0,"x_max":855,"ha":855,"o":"m 843 467 l 785 467 l 631 0 l 556 0 l 428 388 l 300 0 l 228 0 l 74 467 l 16 467 l 16 519 l 251 519 l 251 467 l 167 467 l 283 114 l 417 519 l 480 519 l 613 114 l 730 467 l 655 467 l 655 519 l 843 519 z"},"-":{"x_min":0,"x_max":337,"ha":337,"o":"m 294 230 l 44 230 l 44 306 l 294 306 z"},"E":{"x_min":0,"x_max":729,"ha":729,"o":"m 650 0 l 55 0 l 55 52 l 148 52 l 148 677 l 55 677 l 55 729 l 642 729 l 642 567 l 582 567 l 582 669 l 247 669 l 247 425 l 486 425 l 486 516 l 546 516 l 546 274 l 486 274 l 486 365 l 247 365 l 247 60 l 590 60 l 590 162 l 650 162 z"},"s":{"x_min":0,"x_max":513,"ha":513,"o":"m 462 144 q 462 70 406 28 q 349 -14 250 -14 q 202 -14 152 -3 q 106 7 56 29 l 56 150 l 108 150 q 109 93 144 63 q 181 34 246 34 q 307 34 338 57 q 370 79 370 123 q 370 157 347 178 q 325 199 249 223 l 184 245 q 118 266 87 298 q 57 331 57 381 q 57 454 110 492 q 160 533 254 533 q 299 533 340 522 q 382 514 434 491 l 434 378 l 382 378 q 380 429 347 456 q 315 485 257 485 q 200 485 171 465 q 142 445 142 405 q 142 373 164 352 q 189 332 252 312 l 323 290 q 398 267 430 232 q 462 198 462 144 z"},">":{"x_min":0,"x_max":795,"ha":795,"o":"m 715 235 l 80 11 l 80 95 l 588 275 l 80 455 l 80 539 l 715 315 z"},"l":{"x_min":0,"x_max":319,"ha":319,"o":"m 290 0 l 29 0 l 29 52 l 115 52 l 115 708 l 29 708 l 29 760 l 205 760 l 205 52 l 290 52 z"},"8":{"x_min":0,"x_max":636,"ha":636,"o":"m 569 199 q 569 97 504 41 q 440 -14 318 -14 q 195 -14 132 42 q 67 96 67 199 q 67 279 114 327 q 160 377 243 388 q 168 402 130 444 q 91 488 91 553 q 91 641 152 692 q 213 742 318 742 q 423 742 484 692 q 545 641 545 553 q 545 488 506 444 q 466 401 393 388 q 476 377 522 327 q 569 279 569 199 z m 446 553 q 446 621 412 656 q 378 694 318 694 q 258 694 224 657 q 190 620 190 553 q 190 486 224 449 q 258 412 318 412 q 379 412 412 449 q 446 486 446 553 z m 427 320 q 389 364 318 364 q 247 364 209 320 q 170 278 170 199 q 170 120 209 77 q 248 34 318 34 q 388 34 427 77 q 466 120 466 199 q 466 278 427 320 z"},"\\":{"x_min":0,"x_max":452,"ha":452,"o":"m 372 -147 l 306 -147 l 80 697 l 146 697 z"},"e":{"x_min":0,"x_max":591,"ha":591,"o":"m 436 302 q 433 392 398 439 q 362 485 296 485 q 233 485 198 438 q 162 392 155 302 z m 542 250 l 155 250 l 155 246 q 155 140 194 88 q 234 34 311 34 q 371 34 408 65 q 446 97 461 157 l 533 157 q 512 72 454 29 q 396 -14 302 -14 q 188 -14 119 61 q 50 136 50 260 q 50 382 118 458 q 186 533 296 533 q 414 533 477 460 q 541 387 542 250 z"},"b":{"x_min":0,"x_max":640,"ha":640,"o":"m 450 422 q 414 477 345 477 q 278 477 241 428 q 205 377 205 285 l 205 234 q 205 140 241 91 q 277 42 345 42 q 414 42 450 97 q 485 153 485 260 q 485 367 450 422 z m 530 62 q 469 -14 373 -14 q 313 -14 272 9 q 230 32 205 81 l 205 0 l 29 0 l 29 52 l 115 52 l 115 708 l 29 708 l 29 760 l 205 760 l 205 438 q 230 487 272 510 q 313 533 373 533 q 468 533 530 458 q 590 382 590 260 q 590 138 530 62 z"},"%":{"x_min":0,"x_max":950,"ha":950,"o":"m 392 544 q 392 451 346 398 q 301 345 223 345 q 145 345 100 398 q 55 452 55 544 q 55 636 100 688 q 146 742 223 742 q 300 742 346 688 q 392 636 392 544 z m 740 742 l 284 -14 l 210 -14 l 666 742 z m 895 184 q 895 92 850 40 q 804 -14 727 -14 q 649 -14 604 40 q 558 92 558 184 q 558 277 604 330 q 649 383 727 383 q 804 383 850 329 q 895 275 895 184 z m 817 184 q 817 256 793 298 q 769 339 727 339 q 686 339 660 298 q 636 258 636 184 q 636 111 660 72 q 685 31 727 31 q 770 31 793 72 q 817 111 817 184 z m 290 656 q 266 697 224 697 q 180 697 157 656 q 133 617 133 543 q 133 470 158 430 q 182 389 224 389 q 266 389 290 430 q 314 470 314 543 q 314 616 290 656 z"},"m":{"x_min":0,"x_max":948,"ha":948,"o":"m 921 0 l 672 0 l 672 52 l 750 52 l 750 320 q 750 400 726 434 q 704 467 649 467 q 588 467 558 422 q 526 377 526 289 l 526 52 l 604 52 l 604 0 l 358 0 l 358 52 l 436 52 l 436 323 q 436 401 412 434 q 389 467 335 467 q 274 467 244 422 q 212 377 212 289 l 212 52 l 290 52 l 290 0 l 41 0 l 41 52 l 122 52 l 122 468 l 36 468 l 36 519 l 212 519 l 212 427 q 237 479 276 506 q 314 533 363 533 q 424 533 464 503 q 505 473 518 418 q 543 474 584 504 q 627 533 678 533 q 760 533 800 482 q 840 433 840 330 l 840 52 l 921 52 z"},"#":{"x_min":0,"x_max":837,"ha":837,"o":"m 761 440 l 592 440 l 552 277 l 705 277 l 705 202 l 533 202 l 483 0 l 399 0 l 450 202 l 312 202 l 261 0 l 178 0 l 228 202 l 77 202 l 77 277 l 247 277 l 287 440 l 133 440 l 133 515 l 306 515 l 357 718 l 440 718 l 390 515 l 528 515 l 578 718 l 662 718 l 611 515 l 761 515 z m 509 440 l 371 440 l 330 277 l 469 277 z"},",":{"x_min":0,"x_max":317,"ha":317,"o":"m 221 111 q 216 28 182 -32 q 146 -92 75 -136 l 36 -97 q 81 -63 104 -18 q 125 28 125 93 l 125 111 z"},"n":{"x_min":0,"x_max":644,"ha":644,"o":"m 616 0 l 368 0 l 368 52 l 446 52 l 446 302 q 446 398 422 432 q 399 468 340 468 q 278 468 245 422 q 212 376 212 289 l 212 52 l 290 52 l 290 0 l 41 0 l 41 52 l 122 52 l 122 467 l 36 467 l 36 519 l 212 519 l 212 427 q 238 481 276 506 q 316 533 369 533 q 456 533 496 484 q 536 433 536 330 l 536 52 l 616 52 z"},"h":{"x_min":0,"x_max":644,"ha":644,"o":"m 616 0 l 368 0 l 368 52 l 446 52 l 446 302 q 446 398 422 432 q 399 467 340 467 q 278 467 245 422 q 212 376 212 289 l 212 52 l 290 52 l 290 0 l 41 0 l 41 52 l 122 52 l 122 708 l 36 708 l 36 760 l 212 760 l 212 427 q 238 481 276 506 q 316 533 369 533 q 456 533 496 484 q 536 433 536 330 l 536 52 l 616 52 z"},"z":{"x_min":0,"x_max":526,"ha":526,"o":"m 490 0 l 40 0 l 40 42 l 365 467 l 108 467 l 108 377 l 56 377 l 56 519 l 481 519 l 481 477 l 156 52 l 438 52 l 438 146 l 490 146 z"},"B":{"x_min":0,"x_max":734,"ha":734,"o":"m 674 211 q 674 103 606 52 q 538 0 392 0 l 55 0 l 55 52 l 148 52 l 148 677 l 55 677 l 55 729 l 415 729 q 526 729 581 684 q 637 639 637 549 q 637 484 598 446 q 561 407 485 398 q 578 386 626 338 q 674 291 674 211 z m 488 646 q 451 677 371 677 l 247 677 l 247 421 l 371 421 q 451 421 488 452 q 525 482 525 549 q 525 616 488 646 z m 562 211 q 562 292 522 332 q 479 369 393 369 l 247 369 l 247 52 l 393 52 q 479 52 522 90 q 562 128 562 211 z"},"K":{"x_min":0,"x_max":747,"ha":747,"o":"m 762 0 l 593 0 l 247 346 l 247 52 l 340 52 l 340 0 l 55 0 l 55 52 l 148 52 l 148 677 l 55 677 l 55 729 l 340 729 l 340 677 l 247 677 l 247 401 l 561 677 l 482 677 l 482 729 l 724 729 l 724 677 l 642 677 l 329 402 l 679 52 l 762 52 z"},"R":{"x_min":0,"x_max":752,"ha":752,"o":"m 391 677 l 247 677 l 247 391 l 391 391 q 465 391 500 426 q 535 461 535 534 q 535 607 500 642 q 465 677 391 677 z m 777 0 l 605 0 l 491 232 q 458 300 431 319 q 403 339 356 339 l 247 339 l 247 52 l 350 52 l 350 0 l 55 0 l 55 52 l 148 52 l 148 677 l 55 677 l 55 729 l 425 729 q 530 729 589 678 q 647 627 647 534 q 647 459 604 416 q 562 373 479 362 q 514 353 538 330 q 564 306 582 268 l 688 52 l 777 52 z"},"T":{"x_min":0,"x_max":666,"ha":666,"o":"m 657 557 l 597 557 l 597 671 l 383 671 l 383 52 l 476 52 l 476 0 l 191 0 l 191 52 l 284 52 l 284 671 l 70 671 l 70 557 l 10 557 l 10 729 l 657 729 z"},"P":{"x_min":0,"x_max":672,"ha":672,"o":"m 637 524 q 637 429 573 374 q 507 319 400 319 l 247 319 l 247 52 l 360 52 l 360 0 l 55 0 l 55 52 l 148 52 l 148 677 l 55 677 l 55 729 l 400 729 q 507 729 573 674 q 637 617 637 524 z m 525 524 q 525 598 487 638 q 450 677 376 677 l 247 677 l 247 371 l 376 371 q 450 371 487 410 q 525 451 525 524 z"},"|":{"x_min":0,"x_max":224,"ha":224,"o":"m 144 -147 l 80 -147 l 80 697 l 144 697 z"},"t":{"x_min":0,"x_max":401,"ha":401,"o":"m 394 122 q 390 52 356 18 q 319 -14 250 -14 q 172 -14 140 20 q 108 57 108 137 l 108 467 l 29 467 l 29 519 l 108 519 l 108 680 l 198 680 l 198 519 l 367 519 l 367 467 l 198 467 l 198 137 q 198 71 211 52 q 224 34 258 34 q 292 34 309 55 q 324 75 326 122 z"},"M":{"x_min":0,"x_max":1023,"ha":1023,"o":"m 973 677 l 876 677 l 876 52 l 969 52 l 969 0 l 684 0 l 684 52 l 777 52 l 777 615 l 527 107 l 458 107 l 208 615 l 208 52 l 301 52 l 301 0 l 55 0 l 55 52 l 148 52 l 148 677 l 50 677 l 50 729 l 262 729 l 518 210 l 774 729 l 973 729 z"},"g":{"x_min":0,"x_max":640,"ha":640,"o":"m 435 234 l 435 285 q 435 377 399 428 q 362 477 295 477 q 226 477 190 422 q 155 367 155 260 q 155 154 190 98 q 225 42 295 42 q 363 42 399 91 q 435 140 435 234 z m 611 467 l 525 467 l 525 11 q 525 -99 464 -162 q 401 -222 288 -222 q 236 -222 190 -213 q 142 -204 100 -185 l 100 -76 l 147 -76 q 156 -127 188 -150 q 221 -174 282 -174 q 360 -174 398 -129 q 435 -85 435 11 l 435 81 q 410 32 368 9 q 327 -14 267 -14 q 171 -14 110 62 q 50 138 50 260 q 50 382 110 458 q 172 533 267 533 q 327 533 368 510 q 410 487 435 438 l 435 519 l 611 519 z"},"j":{"x_min":0,"x_max":310,"ha":310,"o":"m 212 -51 q 212 -131 164 -176 q 118 -222 33 -222 q 0 -222 -34 -214 q -66 -206 -96 -190 l -96 -83 l -50 -83 q -47 -130 -26 -152 q -5 -174 35 -174 q 79 -174 100 -144 q 122 -115 122 -51 l 122 467 l 37 467 l 37 519 l 212 519 z m 156 625 q 132 625 116 641 q 100 659 100 680 q 100 701 116 719 q 135 736 156 736 q 178 736 194 720 q 211 703 211 680 q 211 657 195 641 q 179 625 156 625 z"},"i":{"x_min":0,"x_max":319,"ha":319,"o":"m 297 0 l 36 0 l 36 52 l 122 52 l 122 467 l 36 467 l 36 519 l 212 519 l 212 52 l 297 52 z m 208 680 q 208 657 192 641 q 176 625 153 625 q 129 625 114 641 q 97 657 97 680 q 97 703 114 719 q 129 736 153 736 q 174 736 192 720 q 208 701 208 680 z"},"y":{"x_min":0,"x_max":564,"ha":564,"o":"m 562 467 l 504 467 l 266 -117 q 243 -177 212 -200 q 183 -222 128 -222 q 102 -222 81 -218 q 49 -212 32 -207 l 32 -108 l 78 -108 q 81 -140 95 -156 q 109 -170 138 -170 q 164 -170 182 -155 q 199 -138 216 -95 l 250 -9 l 56 467 l -3 467 l -3 519 l 236 519 l 236 467 l 153 467 l 299 110 l 445 467 l 367 467 l 367 519 l 562 519 z"},"@":{"x_min":0,"x_max":1000,"ha":1000,"o":"m 632 237 l 632 288 q 632 349 597 387 q 562 425 506 425 q 447 425 414 382 q 381 338 381 262 q 381 184 414 142 q 447 99 507 99 q 562 99 598 138 q 632 177 632 237 z m 929 326 q 929 196 850 119 q 770 44 632 42 l 632 121 q 605 83 567 62 q 533 42 486 42 q 400 42 348 103 q 294 164 294 262 q 294 359 347 421 q 399 482 486 482 q 533 482 567 462 q 605 441 632 403 l 632 472 l 708 472 l 708 95 q 791 113 837 174 q 883 235 883 327 q 883 383 866 430 q 851 477 817 519 q 762 586 690 618 q 619 653 529 653 q 486 653 442 644 q 395 633 357 615 q 258 570 204 478 q 149 387 149 265 q 149 182 174 114 q 199 44 244 -4 q 296 -62 370 -92 q 442 -123 528 -123 q 592 -123 646 -104 q 702 -85 747 -49 l 773 -83 q 720 -129 653 -151 q 584 -174 507 -174 q 420 -174 336 -142 q 256 -109 194 -49 q 132 12 98 93 q 66 174 66 265 q 66 355 98 434 q 131 514 194 576 q 256 638 340 671 q 424 704 519 704 q 621 704 710 664 q 797 621 854 547 q 889 502 910 443 q 929 389 929 326 z"},".":{"x_min":0,"x_max":317,"ha":317,"o":"m 159 -14 q 131 -14 112 5 q 94 25 94 51 q 94 78 112 97 q 131 116 159 116 q 186 116 205 97 q 224 78 224 51 q 224 24 205 5 q 186 -14 159 -14 z"},"p":{"x_min":0,"x_max":640,"ha":640,"o":"m 530 62 q 469 -14 373 -14 q 313 -14 272 9 q 230 32 205 81 l 205 -156 l 290 -156 l 290 -208 l 29 -208 l 29 -156 l 115 -156 l 115 467 l 29 467 l 29 519 l 205 519 l 205 438 q 230 487 272 510 q 313 533 373 533 q 468 533 530 458 q 590 382 590 260 q 590 138 530 62 z m 450 422 q 414 477 345 477 q 278 477 241 428 q 205 377 205 285 l 205 234 q 205 140 241 91 q 277 42 345 42 q 414 42 450 97 q 485 153 485 260 q 485 367 450 422 z"},"X":{"x_min":0,"x_max":711,"ha":711,"o":"m 707 0 l 418 0 l 418 52 l 505 52 l 331 312 l 153 52 l 247 52 l 247 0 l 6 0 l 6 52 l 90 52 l 300 358 l 87 677 l 9 677 l 9 729 l 298 729 l 298 677 l 212 677 l 368 442 l 529 677 l 435 677 l 435 729 l 674 729 l 674 677 l 592 677 l 399 396 l 629 52 l 707 52 z"},"*":{"x_min":0,"x_max":500,"ha":500,"o":"m 474 437 l 434 372 l 278 469 l 290 295 l 210 295 l 222 469 l 66 372 l 26 437 l 194 515 l 26 592 l 66 657 l 222 560 l 210 735 l 290 735 l 278 560 l 434 657 l 474 592 l 306 515 z"},"Y":{"x_min":0,"x_max":660,"ha":660,"o":"m 669 677 l 600 677 l 381 323 l 381 52 l 474 52 l 474 0 l 189 0 l 189 52 l 282 52 l 282 314 l 57 677 l -11 677 l -11 729 l 260 729 l 260 677 l 175 677 l 357 382 l 539 677 l 457 677 l 457 729 l 669 729 z"},"c":{"x_min":0,"x_max":560,"ha":560,"o":"m 514 156 q 494 71 441 30 q 388 -14 301 -14 q 188 -14 119 61 q 50 136 50 260 q 50 386 119 459 q 188 533 301 533 q 347 533 399 522 q 444 511 497 487 l 497 354 l 445 354 q 435 421 400 454 q 364 485 302 485 q 230 485 192 428 q 155 373 155 260 q 155 147 192 91 q 230 34 302 34 q 361 34 394 64 q 428 94 442 156 z"},"!":{"x_min":0,"x_max":401,"ha":401,"o":"m 264 729 l 231 328 l 231 205 l 171 205 l 171 328 l 138 729 z m 201 -14 q 173 -14 154 5 q 136 25 136 51 q 136 78 154 97 q 173 116 201 116 q 228 116 247 97 q 266 78 266 51 q 266 24 247 5 q 228 -14 201 -14 z"},"/":{"x_min":0,"x_max":452,"ha":452,"o":"m 372 697 l 146 -147 l 80 -147 l 306 697 z"},"[":{"x_min":0,"x_max":419,"ha":419,"o":"m 366 -173 l 120 -173 l 120 723 l 366 723 l 366 671 l 208 671 l 208 -121 l 366 -121 z"},"6":{"x_min":0,"x_max":636,"ha":636,"o":"m 573 230 q 573 120 505 52 q 438 -14 323 -14 q 199 -14 133 78 q 67 170 67 341 q 67 533 146 637 q 224 742 367 742 q 409 742 448 735 q 494 727 535 713 l 535 593 l 480 593 q 474 643 442 668 q 411 694 357 694 q 261 694 216 622 q 170 552 168 401 q 200 438 243 456 q 285 474 338 474 q 447 474 510 408 q 573 343 573 230 z m 433 376 q 395 426 327 426 q 257 426 220 377 q 184 328 184 236 q 184 139 221 86 q 259 34 327 34 q 395 34 433 84 q 470 134 470 230 q 470 326 433 376 z"},"r":{"x_min":0,"x_max":478,"ha":478,"o":"m 478 390 l 426 390 q 425 428 405 448 q 386 467 349 467 q 282 467 248 421 q 212 374 212 289 l 212 52 l 316 52 l 316 0 l 41 0 l 41 52 l 122 52 l 122 468 l 36 468 l 36 519 l 212 519 l 212 427 q 238 481 280 507 q 321 533 381 533 q 403 533 427 530 l 478 520 z"},"2":{"x_min":0,"x_max":636,"ha":636,"o":"m 538 0 l 68 0 l 68 53 l 289 274 q 359 344 394 408 q 425 473 425 537 q 425 612 386 652 q 348 694 281 694 q 211 694 173 659 q 136 625 128 555 l 73 555 l 73 685 q 124 712 178 728 q 232 742 282 742 q 397 742 462 687 q 528 632 528 537 q 528 430 378 281 q 366 270 361 264 l 177 80 l 481 80 l 481 170 l 538 170 z"},"{":{"x_min":0,"x_max":418,"ha":418,"o":"m 365 -173 q 165 -173 165 -6 l 165 134 q 165 249 53 249 l 53 301 q 165 301 165 416 l 165 556 q 165 723 365 723 l 365 671 q 253 671 253 556 l 253 416 q 253 315 180 275 q 253 235 253 134 l 253 -6 q 253 -121 365 -121 z"},"9":{"x_min":0,"x_max":636,"ha":636,"o":"m 452 492 q 452 590 415 642 q 377 694 309 694 q 241 694 203 644 q 166 594 166 498 q 166 402 203 352 q 241 302 309 302 q 378 302 415 351 q 452 400 452 492 z m 569 387 q 569 195 490 91 q 412 -14 269 -14 q 227 -14 188 -7 q 143 1 101 15 l 101 136 l 156 136 q 162 88 194 60 q 226 34 279 34 q 375 34 420 106 q 466 176 468 327 q 435 290 392 272 q 350 254 297 254 q 189 254 126 320 q 63 384 63 498 q 63 608 131 676 q 198 742 313 742 q 437 742 503 650 q 569 558 569 387 z"}," ":{"x_min":0,"x_max":317,"ha":317,"o":""},"I":{"x_min":0,"x_max":395,"ha":395,"o":"m 340 0 l 55 0 l 55 52 l 148 52 l 148 677 l 55 677 l 55 729 l 340 729 l 340 677 l 247 677 l 247 52 l 340 52 z"},"H":{"x_min":0,"x_max":872,"ha":872,"o":"m 817 0 l 532 0 l 532 52 l 625 52 l 625 365 l 247 365 l 247 52 l 340 52 l 340 0 l 55 0 l 55 52 l 148 52 l 148 677 l 55 677 l 55 729 l 340 729 l 340 677 l 247 677 l 247 425 l 625 425 l 625 677 l 532 677 l 532 729 l 817 729 l 817 677 l 724 677 l 724 52 l 817 52 z"},"4":{"x_min":0,"x_max":636,"ha":636,"o":"m 586 195 l 447 195 l 447 52 l 564 52 l 564 0 l 232 0 l 232 52 l 349 52 l 349 195 l 31 195 l 31 248 l 350 742 l 447 742 l 447 247 l 586 247 z m 349 247 l 349 635 l 100 247 z"},"~":{"x_min":0,"x_max":837,"ha":837,"o":"m 732 322 q 684 280 639 258 q 594 238 550 238 q 505 238 418 270 l 413 272 q 404 275 397 278 q 326 306 279 306 q 234 306 192 288 q 152 273 106 233 l 106 307 q 156 350 198 369 q 244 389 288 389 q 333 389 420 357 l 425 355 l 440 349 q 509 321 558 321 q 602 321 646 339 q 689 357 732 394 z"},"D":{"x_min":0,"x_max":801,"ha":801,"o":"m 638 96 q 533 0 345 0 l 55 0 l 55 52 l 148 52 l 148 677 l 55 677 l 55 729 l 345 729 q 533 729 638 633 q 744 537 744 365 q 744 193 638 96 z m 556 596 q 480 677 338 677 l 247 677 l 247 52 l 338 52 q 480 52 556 133 q 632 213 632 365 q 632 517 556 596 z"},"^":{"x_min":0,"x_max":837,"ha":837,"o":"m 732 457 l 657 457 l 419 643 l 181 457 l 106 457 l 371 729 l 467 729 z"},"0":{"x_min":0,"x_max":636,"ha":636,"o":"m 504 86 q 437 -14 318 -14 q 199 -14 132 86 q 66 185 66 364 q 66 543 132 642 q 199 742 318 742 q 437 742 504 642 q 570 543 570 364 q 570 185 504 86 z m 430 612 q 393 694 318 694 q 243 694 206 612 q 169 531 169 364 q 169 197 206 116 q 243 34 318 34 q 393 34 430 116 q 467 197 467 364 q 467 531 430 612 z"},"F":{"x_min":0,"x_max":693,"ha":693,"o":"m 652 567 l 592 567 l 592 669 l 247 669 l 247 425 l 496 425 l 496 516 l 556 516 l 556 274 l 496 274 l 496 365 l 247 365 l 247 52 l 364 52 l 364 0 l 55 0 l 55 52 l 148 52 l 148 677 l 55 677 l 55 729 l 652 729 z"},"`":{"x_min":0,"x_max":500,"ha":500,"o":"m 306 615 l 249 615 l 83 799 l 179 799 z"},"k":{"x_min":0,"x_max":605,"ha":605,"o":"m 613 0 l 357 0 l 357 52 l 431 52 l 276 265 l 205 199 l 205 52 l 286 52 l 286 0 l 34 0 l 34 52 l 115 52 l 115 708 l 29 708 l 29 760 l 205 760 l 205 265 l 424 467 l 349 467 l 349 519 l 584 519 l 584 467 l 495 467 l 341 324 l 538 52 l 613 52 z"},"u":{"x_min":0,"x_max":644,"ha":644,"o":"m 607 0 l 432 0 l 432 92 q 407 40 368 13 q 328 -14 276 -14 q 189 -14 149 35 q 108 85 108 189 l 108 467 l 27 467 l 27 519 l 198 519 l 198 217 q 198 122 222 87 q 245 52 304 52 q 366 52 399 98 q 432 145 432 231 l 432 467 l 354 467 l 354 519 l 522 519 l 522 52 l 607 52 z"},"]":{"x_min":0,"x_max":419,"ha":419,"o":"m 299 -173 l 53 -173 l 53 -121 l 211 -121 l 211 671 l 53 671 l 53 723 l 299 723 z"},"U":{"x_min":0,"x_max":842,"ha":842,"o":"m 798 677 l 705 677 l 705 290 q 705 122 641 54 q 576 -14 424 -14 q 270 -14 206 56 q 140 125 140 290 l 140 677 l 47 677 l 47 729 l 332 729 l 332 677 l 239 677 l 239 300 q 239 160 284 105 q 330 50 442 50 q 554 50 600 105 q 645 160 645 300 l 645 677 l 552 677 l 552 729 l 798 729 z"},"o":{"x_min":0,"x_max":602,"ha":602,"o":"m 552 260 q 552 137 484 61 q 415 -14 301 -14 q 188 -14 119 61 q 50 136 50 260 q 50 384 118 458 q 187 533 301 533 q 415 533 484 458 q 552 384 552 260 z m 447 260 q 447 372 410 428 q 372 485 301 485 q 230 485 192 428 q 155 372 155 260 q 155 148 192 92 q 229 34 301 34 q 372 34 410 91 q 447 147 447 260 z"},"N":{"x_min":0,"x_max":875,"ha":875,"o":"m 831 677 l 733 677 l 733 -14 l 674 -14 l 207 600 l 207 52 l 305 52 l 305 0 l 49 0 l 49 52 l 147 52 l 147 677 l 49 677 l 49 729 l 236 729 l 673 154 l 673 677 l 575 677 l 575 729 l 831 729 z"},"+":{"x_min":0,"x_max":788,"ha":788,"o":"m 708 235 l 434 235 l 434 -39 l 354 -39 l 354 235 l 80 235 l 80 315 l 354 315 l 354 589 l 434 589 l 434 315 l 708 315 z"},"G":{"x_min":0,"x_max":798,"ha":798,"o":"m 720 61 q 656 24 580 4 q 505 -14 420 -14 q 255 -14 156 89 q 56 192 56 364 q 56 537 156 640 q 255 742 424 742 q 483 742 553 728 q 616 714 695 684 l 695 511 l 640 511 q 624 602 569 646 q 514 690 418 690 q 292 690 230 609 q 168 527 168 364 q 168 203 232 120 q 297 38 420 38 q 478 38 526 52 q 575 64 621 93 l 621 281 l 484 281 l 484 333 l 720 333 z"},"q":{"x_min":0,"x_max":640,"ha":640,"o":"m 435 234 l 435 285 q 435 377 399 428 q 362 477 295 477 q 226 477 190 422 q 155 367 155 260 q 155 154 190 98 q 225 42 295 42 q 363 42 399 91 q 435 140 435 234 z m 611 -208 l 350 -208 l 350 -156 l 435 -156 l 435 81 q 410 32 368 9 q 327 -14 267 -14 q 171 -14 110 62 q 50 138 50 260 q 50 382 110 458 q 172 533 267 533 q 327 533 368 510 q 410 487 435 438 l 435 519 l 611 519 l 611 467 l 525 467 l 525 -156 l 611 -156 z"},"d":{"x_min":0,"x_max":640,"ha":640,"o":"m 435 234 l 435 285 q 435 377 399 428 q 362 477 295 477 q 226 477 190 422 q 155 367 155 260 q 155 154 190 98 q 225 42 295 42 q 363 42 399 91 q 435 140 435 234 z m 611 0 l 435 0 l 435 81 q 410 32 368 9 q 327 -14 267 -14 q 171 -14 110 62 q 50 138 50 260 q 50 382 110 458 q 172 533 267 533 q 327 533 368 510 q 410 487 435 438 l 435 708 l 350 708 l 350 760 l 525 760 l 525 52 l 611 52 z"},"1":{"x_min":0,"x_max":636,"ha":636,"o":"m 494 0 l 142 0 l 142 52 l 269 52 l 269 658 l 122 563 l 122 627 l 300 742 l 367 742 l 367 52 l 494 52 z"},"5":{"x_min":0,"x_max":636,"ha":636,"o":"m 559 231 q 559 114 490 50 q 420 -14 296 -14 q 246 -14 193 -2 q 138 10 85 35 l 85 177 l 140 177 q 145 108 184 71 q 224 34 296 34 q 374 34 414 85 q 456 136 456 231 q 456 326 415 376 q 374 427 296 427 q 252 427 218 412 q 184 395 159 363 l 117 363 l 117 729 l 503 729 l 503 649 l 169 649 l 169 440 q 196 459 228 466 q 263 475 304 475 q 422 475 490 410 q 559 344 559 231 z"}}}
